<svg width="512" height="512" viewBox="0 0 512 512" fill="none" xmlns="http://www.w3.org/2000/svg">
  <rect width="512" height="512" rx="128" fill="#0a0a0a"/>
  <rect x="64" y="64" width="384" height="384" rx="64" fill="#1a1a1a"/>
  
  <!-- Wallet Icon -->
  <path d="M128 192C128 174.327 142.327 160 160 160H352C369.673 160 384 174.327 384 192V320C384 337.673 369.673 352 352 352H160C142.327 352 128 337.673 128 320V192Z" fill="#22c55e" opacity="0.2"/>
  <path d="M128 192C128 174.327 142.327 160 160 160H352C369.673 160 384 174.327 384 192V224H320C302.327 224 288 238.327 288 256C288 273.673 302.327 288 320 288H384V320C384 337.673 369.673 352 352 352H160C142.327 352 128 337.673 128 320V192Z" stroke="#22c55e" stroke-width="8" stroke-linecap="round" stroke-linejoin="round"/>
  <circle cx="320" cy="256" r="12" fill="#22c55e"/>
  
  <!-- Receipt Lines -->
  <line x1="168" y1="200" x2="272" y2="200" stroke="#22c55e" stroke-width="6" stroke-linecap="round" opacity="0.6"/>
  <line x1="168" y1="232" x2="240" y2="232" stroke="#22c55e" stroke-width="6" stroke-linecap="round" opacity="0.6"/>
  <line x1="168" y1="312" x2="296" y2="312" stroke="#22c55e" stroke-width="6" stroke-linecap="round" opacity="0.6"/>
</svg>

